
<svg version="1.0" xmlns="http://www.w3.org/2000/svg"
 width="4096.000000pt" height="1890.000000pt" viewBox="0 0 4096.000000 1890.000000"
 preserveAspectRatio="xMidYMid meet">

<g transform="translate(0.000000,1890.000000) scale(0.100000,-0.100000)"
fill="#000000" stroke="none">
<path d="M19315 15986 c-68 -17 -148 -58 -206 -107 -52 -43 -139 -165 -160
-224 -7 -19 -18 -35 -24 -35 -5 0 -23 16 -39 36 -55 69 -195 159 -295 190
-222 68 -493 -27 -613 -216 -115 -180 -83 -454 77 -674 205 -283 576 -508 902
-548 114 -14 172 -4 291 52 264 124 465 323 601 595 150 302 135 595 -43 791
-116 128 -311 184 -491 140z m283 -180 c61 -31 125 -100 159 -173 25 -53 27
-69 27 -183 1 -107 -3 -135 -23 -195 -95 -278 -305 -518 -561 -643 -118 -58
-176 -64 -300 -32 -158 40 -295 101 -430 193 -91 62 -254 223 -302 298 -188
294 -93 579 210 628 134 22 264 -27 374 -140 37 -39 86 -101 109 -139 44 -75
79 -97 124 -80 33 12 49 42 69 124 47 192 168 337 306 367 65 15 185 2 238
-25z"/>
<path d="M21144 13922 c-157 -56 -315 -205 -428 -407 -42 -75 -52 -86 -70 -80
-109 31 -411 85 -656 116 -154 20 -221 23 -565 23 -340 0 -413 -3 -572 -22
-570 -69 -1025 -186 -1458 -377 -391 -172 -710 -404 -793 -575 -93 -192 -115
-693 -51 -1135 47 -324 144 -619 265 -808 24 -37 44 -71 44 -75 0 -5 -35 -39
-77 -77 -189 -168 -352 -355 -410 -468 -27 -54 -40 -142 -29 -201 13 -70 97
-136 174 -136 21 0 41 -3 45 -6 3 -4 -14 -47 -39 -96 -134 -268 -139 -449 -15
-561 57 -52 82 -60 181 -60 133 1 287 61 481 189 46 30 86 54 91 54 18 0 -22
-280 -64 -450 -59 -239 -124 -403 -316 -800 -222 -460 -323 -692 -425 -985
-46 -131 -138 -426 -156 -500 -5 -22 -20 -85 -34 -140 -39 -158 -66 -283 -82
-383 -18 -105 -37 -436 -30 -521 2 -31 7 -109 10 -174 l5 -117 -57 32 c-53 30
-65 33 -143 33 -126 -1 -192 -42 -242 -150 -21 -45 -23 -64 -23 -195 1 -117 5
-161 23 -230 85 -324 268 -607 449 -696 l58 -29 712 -3 711 -3 27 -35 c92
-121 340 -181 705 -171 343 10 625 73 780 177 42 28 51 30 141 30 94 0 97 -1
114 -27 69 -104 233 -160 500 -170 309 -11 621 48 855 161 l65 31 1715 5
c1900 6 1723 -1 1885 67 347 146 647 607 766 1180 36 176 50 336 50 573 -1
530 -85 1099 -258 1740 -25 91 -47 174 -50 185 -59 230 -290 897 -425 1225
-319 777 -603 1353 -1015 2065 -242 418 -440 729 -696 1092 -178 253 -165 221
-118 280 83 104 168 314 192 473 17 120 7 344 -21 440 -46 156 -136 282 -239
332 -61 30 -164 35 -251 13 -117 -29 -340 -150 -507 -274 -17 -13 -38 -21 -46
-18 -7 3 -29 43 -47 89 -108 272 -251 478 -375 538 -66 33 -186 38 -261 12z
m224 -179 c84 -67 205 -274 290 -495 l29 -77 -38 -30 c-21 -17 -42 -31 -47
-31 -4 0 -36 13 -70 30 -114 55 -409 165 -589 220 -57 18 -103 37 -103 43 0 7
22 46 48 87 158 243 359 350 480 253z m1185 -322 c41 -16 94 -76 126 -143 84
-177 81 -464 -6 -683 -84 -211 -220 -344 -420 -409 -82 -27 -106 -84 -61 -141
34 -43 99 -33 239 38 62 31 115 54 120 51 19 -12 334 -469 483 -704 27 -41 58
-91 71 -110 143 -224 399 -668 585 -1015 154 -286 469 -944 574 -1198 19 -45
53 -127 76 -182 23 -55 65 -158 92 -230 28 -71 59 -152 70 -180 122 -313 273
-791 363 -1140 25 -99 50 -197 56 -218 43 -160 116 -577 150 -852 25 -210 37
-712 20 -878 -45 -447 -213 -859 -453 -1112 -118 -125 -218 -187 -363 -226
-66 -17 -119 -19 -845 -18 -712 0 -778 1 -806 17 -67 36 -120 129 -161 280
-24 88 -27 114 -27 272 0 155 2 184 23 250 38 126 78 170 152 170 71 0 141
-122 190 -330 22 -97 40 -120 92 -120 39 0 62 14 76 48 10 23 8 44 -8 113 -23
98 -64 218 -94 272 -21 37 -21 38 -3 130 32 165 90 299 181 416 160 206 447
363 790 431 33 7 70 21 83 33 31 29 30 80 -4 114 -23 23 -30 25 -77 19 -80
-11 -201 -43 -312 -83 -434 -156 -711 -437 -805 -818 -12 -49 -22 -69 -31 -66
-47 13 -113 11 -164 -4 -45 -13 -69 -28 -111 -70 -83 -82 -127 -201 -144 -389
-21 -218 21 -468 106 -627 13 -26 24 -49 24 -53 0 -3 -300 -6 -666 -6 l-666 0
32 39 c86 110 293 611 630 1526 49 132 120 325 159 428 86 228 88 252 30 282
-40 21 -55 19 -88 -12 -29 -29 -42 -61 -260 -653 -328 -894 -516 -1349 -609
-1476 -63 -86 -242 -193 -417 -248 -44 -14 -136 -38 -205 -52 -112 -24 -147
-27 -335 -28 -173 0 -222 3 -280 18 -103 27 -162 61 -176 103 -17 53 -5 77 74
141 114 94 104 62 112 357 16 628 60 1155 131 1565 37 212 39 236 21 264 -21
32 -67 42 -105 22 -33 -17 -47 -61 -77 -243 -74 -448 -119 -976 -131 -1513
l-6 -275 -74 -70 c-74 -71 -114 -126 -114 -157 0 -13 -8 -18 -31 -18 -26 0
-30 3 -24 17 16 41 55 260 74 423 41 353 76 1046 80 1588 l2 203 -31 31 c-26
25 -36 29 -62 24 -72 -14 -77 -37 -78 -379 -1 -728 -67 -1575 -142 -1835 -25
-86 -55 -117 -157 -164 -143 -66 -447 -118 -683 -118 -134 1 -316 23 -400 49
-70 22 -128 66 -128 98 0 44 49 122 102 162 76 59 88 72 88 97 0 12 -36 138
-79 281 -136 441 -199 685 -270 1038 -32 158 -91 531 -107 668 -5 47 -12 62
-36 82 -38 32 -72 32 -105 -1 -25 -25 -25 -29 -19 -103 10 -123 65 -476 107
-682 66 -332 141 -623 262 -1024 l64 -210 -48 -49 c-48 -49 -109 -150 -109
-180 0 -14 -26 -16 -237 -16 -196 0 -254 4 -328 19 -409 87 -663 456 -751
1091 -25 175 -25 519 0 695 53 385 220 965 404 1405 73 174 103 239 224 490
204 420 273 577 338 770 69 206 115 452 126 675 6 128 7 131 37 163 l31 32 13
-52 c31 -120 103 -174 222 -166 138 10 258 123 376 356 28 54 54 92 63 92 29
0 223 -60 285 -88 34 -16 81 -41 104 -55 56 -36 105 -36 132 -1 23 29 27 64
11 94 -25 46 -224 141 -381 182 -46 12 -88 25 -92 29 -5 4 2 40 16 80 23 69
39 119 82 273 l17 59 36 -67 c102 -185 281 -278 321 -166 13 39 1 72 -34 97
-128 88 -183 182 -205 346 -36 268 84 533 290 641 92 49 103 65 87 128 -15 56
-75 64 -158 22 -222 -111 -370 -353 -386 -630 l-6 -102 -128 -31 c-291 -73
-467 -57 -618 54 -93 68 -142 149 -161 265 -13 74 -11 145 9 450 11 157 -3
190 -79 190 -35 0 -80 -38 -80 -67 0 -10 -5 -81 -10 -158 -6 -77 -13 -189 -15
-249 -3 -60 -6 -110 -7 -111 -36 -21 -132 -85 -159 -107 -20 -15 -41 -28 -46
-28 -9 0 -106 164 -132 225 -97 221 -163 550 -180 895 -7 150 -2 418 8 470 2
8 37 -38 87 -115 26 -38 56 -80 67 -92 46 -51 137 -12 137 58 0 40 -100 192
-191 293 l-62 68 17 33 c45 83 178 202 346 309 91 58 401 211 525 259 560 217
1166 327 1799 327 553 0 1042 -77 1569 -246 146 -47 467 -174 467 -185 0 -4
-37 -34 -82 -66 -105 -74 -128 -99 -128 -135 0 -41 40 -78 84 -78 30 0 59 18
173 105 484 369 605 455 746 530 148 79 242 102 310 76z m-5289 -2835 c50
-113 182 -239 304 -290 143 -60 316 -73 504 -36 57 11 106 20 109 20 4 0 -4
-42 -18 -92 -109 -422 -272 -757 -399 -818 -82 -40 -115 2 -100 128 21 174 21
177 -9 200 -30 24 -56 28 -83 13 -9 -5 -71 -62 -137 -128 -279 -275 -630 -477
-780 -449 -72 14 -95 107 -55 233 55 176 231 446 472 726 57 66 68 85 68 115
0 48 -32 82 -79 82 -42 0 -70 -28 -233 -231 -113 -141 -152 -173 -242 -198
-61 -16 -86 -6 -86 35 0 124 296 441 655 702 39 28 72 51 75 51 3 0 18 -28 34
-63z m-1199 -5560 c75 -57 161 -198 219 -359 84 -233 204 -413 370 -555 l49
-42 -207 0 c-198 0 -209 1 -254 24 -136 69 -281 307 -358 586 -13 46 -18 103
-18 193 l-1 129 34 30 c30 27 39 30 82 26 32 -3 60 -14 84 -32z"/>
<path d="M18520 12245 c-8 -2 -51 -9 -95 -15 -145 -22 -305 -71 -441 -135 -77
-37 -114 -73 -114 -112 0 -30 51 -83 79 -83 12 0 56 17 99 39 145 73 272 106
560 147 69 10 97 90 47 139 -19 20 -34 25 -72 24 -26 -1 -55 -3 -63 -4z"/>
<path d="M20285 12174 c-78 -12 -193 -36 -218 -46 -69 -27 -61 -137 11 -152
15 -4 72 3 127 14 121 26 326 30 468 10 112 -16 145 -9 165 33 29 60 -3 104
-88 123 -64 15 -402 27 -465 18z"/>
<path d="M24063 7778 c-12 -6 -27 -23 -33 -39 -11 -25 -7 -45 33 -166 26 -76
53 -169 62 -208 20 -83 45 -115 92 -115 41 0 83 37 83 73 0 35 -43 194 -85
317 -47 138 -84 171 -152 138z"/>
<path d="M24515 7448 c-52 -30 -56 -66 -20 -159 14 -35 42 -118 61 -184 19
-66 41 -129 49 -141 31 -47 113 -37 135 17 15 35 6 77 -62 284 -35 107 -56
156 -74 173 -27 24 -58 28 -89 10z"/>
<path d="M24280 7003 c-50 -34 -50 -46 -10 -186 16 -56 39 -148 50 -202 16
-80 25 -105 46 -122 41 -37 103 -23 124 27 13 30 -1 118 -41 270 -43 161 -59
200 -89 215 -37 19 -50 19 -80 -2z"/>
</g>
</svg>
