<svg width="48" height="48" viewBox="0 0 48 48" fill="none" xmlns="http://www.w3.org/2000/svg">
<mask id="mask0_7_102" style="mask-type:alpha" maskUnits="userSpaceOnUse" x="0" y="0" width="48" height="48">
<rect width="48" height="48" fill="#D9D9D9"/>
</mask>
<g mask="url(#mask0_7_102)">
<path d="M24.012 37.2C24.7863 37.2 25.4447 36.9167 25.987 36.35C26.529 35.7833 26.8 35.1167 26.8 34.35H21.15C21.15 35.1167 21.4333 35.7833 22 36.35C22.5667 36.9167 23.2373 37.2 24.012 37.2ZM14.3 31.35H33.65V28.35H31.65V22.6C31.65 20.6 31.125 18.7583 30.075 17.075C29.025 15.3917 27.55 14.3667 25.65 14V12.5C25.65 12.0323 25.492 11.6405 25.176 11.3245C24.86 11.0082 24.4683 10.85 24.001 10.85C23.5337 10.85 23.1333 11.0082 22.8 11.3245C22.4667 11.6405 22.3 12.0323 22.3 12.5V14C20.4 14.3667 18.925 15.35 17.875 16.95C16.825 18.55 16.3 20.3333 16.3 22.3V28.35H14.3V31.35ZM19.3 28.35V22C19.3 20.6527 19.75 19.4992 20.65 18.5395C21.55 17.5798 22.6583 17.1 23.975 17.1C25.2917 17.1 26.4 17.5798 27.3 18.5395C28.2 19.4992 28.65 20.6527 28.65 22V28.35H19.3ZM24.0135 44C21.2555 44 18.6638 43.475 16.2385 42.425C13.8128 41.375 11.6917 39.9417 9.875 38.125C8.05833 36.3083 6.625 34.186 5.575 31.758C4.525 29.33 4 26.7357 4 23.975C4 21.2143 4.525 18.62 5.575 16.192C6.625 13.764 8.05833 11.65 9.875 9.85C11.6917 8.05 13.814 6.625 16.242 5.575C18.67 4.525 21.2643 4 24.025 4C26.7857 4 29.38 4.525 31.808 5.575C34.236 6.625 36.35 8.05 38.15 9.85C39.95 11.65 41.375 13.7667 42.425 16.2C43.475 18.6333 44 21.2288 44 23.9865C44 26.7445 43.475 29.3362 42.425 31.7615C41.375 34.1872 39.95 36.3053 38.15 38.116C36.35 39.9263 34.2333 41.3597 31.8 42.416C29.3667 43.472 26.7712 44 24.0135 44ZM24.025 41C28.7417 41 32.75 39.3417 36.05 36.025C39.35 32.7083 41 28.6917 41 23.975C41 19.2583 39.3532 15.25 36.0595 11.95C32.7658 8.65 28.746 7 24 7C19.3 7 15.2917 8.64683 11.975 11.9405C8.65833 15.2342 7 19.254 7 24C7 28.7 8.65833 32.7083 11.975 36.025C15.2917 39.3417 19.3083 41 24.025 41Z" fill="#1C1B1F"/>
</g>
</svg>
