<svg width="48" height="48" viewBox="0 0 48 48" fill="none" xmlns="http://www.w3.org/2000/svg">
<mask id="mask0_7_90" style="mask-type:alpha" maskUnits="userSpaceOnUse" x="0" y="0" width="48" height="48">
<rect width="48" height="48" fill="#D9D9D9"/>
</mask>
<g mask="url(#mask0_7_90)">
<path d="M12 44C10.3333 44 8.91667 43.4167 7.75 42.25C6.58333 41.0833 6 39.6667 6 38V10C6 8.33333 6.58333 6.91667 7.75 5.75C8.91667 4.58333 10.3333 4 12 4H33V35H12C11.15 35 10.4375 35.2875 9.8625 35.8625C9.2875 36.4375 9 37.15 9 38C9 38.85 9.2875 39.5625 9.8625 40.1375C10.4375 40.7125 11.15 41 12 41H39V8H42V44H12ZM17 32H30V7H17V32ZM14 32V7H12C11.1333 7 10.4167 7.2875 9.85 7.8625C9.28333 8.4375 9 9.15 9 10V32.85C9.43333 32.5833 9.898 32.375 10.394 32.225C10.8903 32.075 11.4257 32 12 32H14Z" fill="#1C1B1F"/>
</g>
</svg>
