<svg width="48" height="48" viewBox="0 0 48 48" fill="none" xmlns="http://www.w3.org/2000/svg">
<mask id="mask0_7_107" style="mask-type:alpha" maskUnits="userSpaceOnUse" x="0" y="0" width="48" height="48">
<rect width="48" height="48" fill="#D9D9D9"/>
</mask>
<g mask="url(#mask0_7_107)">
<path d="M19.45 28L24 25.25L28.55 28L27.35 22.8L31.35 19.35L26.1 18.9L24 14L21.9 18.9L16.65 19.35L20.65 22.8L19.45 28ZM10 42V8.75C10 7.95 10.3 7.25 10.9 6.65C11.5 6.05 12.2 5.75 13 5.75H35C35.8 5.75 36.5 6.05 37.1 6.65C37.7 7.25 38 7.95 38 8.75V42L24 36L10 42ZM13 37.45L24 32.8L35 37.45V8.75H13V37.45Z" fill="#1C1B1F"/>
</g>
</svg>
